name pl14_filtered_grf.mot
datacolumns 37
datarows 10
range 0.665000 0.669500
endheader
time	1_ground_force_vx	1_ground_force_vy	1_ground_force_vz	1_ground_force_px	1_ground_force_py	1_ground_force_pz	1_ground_torque_x	1_ground_torque_y	1_ground_torque_z	2_ground_force_vx	2_ground_force_vy	2_ground_force_vz	2_ground_force_px	2_ground_force_py	2_ground_force_pz	2_ground_torque_x	2_ground_torque_y	2_ground_torque_z	3_ground_force_vx	3_ground_force_vy	3_ground_force_vz	3_ground_force_px	3_ground_force_py	3_ground_force_pz	3_ground_torque_x	3_ground_torque_y	3_ground_torque_z	4_ground_force_vx	4_ground_force_vy	4_ground_force_vz	4_ground_force_px	4_ground_force_py	4_ground_force_pz	4_ground_torque_x	4_ground_torque_y	4_ground_torque_z
            0.665000	           -0.000000	            0.000000	            0.000000	            0.131163	            0.000000	            0.255524	            0.000000	            0.000000	           -0.000000	           -0.000000	            0.000000	            0.000000	           -0.134203	            0.000000	            0.291502	            0.000000	           -0.000000	            0.000000	           -8.166234	          321.736288	          228.664912	            0.374936	            1.309140	            1.914772	            0.068035	           18.519004	          -51.984108	          -13.735942	          343.437279	          237.188412	           -0.265990	            1.308939	            1.926704	           -0.722032	           18.052835	           12.467847
            0.665500	           -0.000000	            0.000000	            0.000000	            0.131163	            0.000000	            0.255524	            0.000000	            0.000000	           -0.000000	           -0.000000	            0.000000	            0.000000	           -0.134203	            0.000000	            0.291502	            0.000000	           -0.000000	            0.000000	           -8.154617	          321.930680	          229.042718	            0.374939	            1.309140	            1.914777	            0.068240	           18.569957	          -52.040715	          -13.631611	          344.060358	          237.645032	           -0.265986	            1.308938	            1.926708	           -0.716480	           18.083884	           12.490673
            0.666000	           -0.000000	            0.000000	            0.000000	            0.131163	            0.000000	            0.255524	            0.000000	            0.000000	           -0.000000	           -0.000000	            0.000000	            0.000000	           -0.134203	            0.000000	            0.291502	            0.000000	           -0.000000	            0.000000	           -8.142922	          322.126774	          229.424441	            0.374942	            1.309140	            1.914781	            0.068432	           18.621422	          -52.097845	          -13.524220	          344.695358	          238.109568	           -0.265982	            1.308937	            1.926712	           -0.710762	           18.115387	           12.513795
            0.666500	           -0.000000	            0.000000	            0.000000	            0.131163	            0.000000	            0.255524	            0.000000	            0.000000	           -0.000000	           -0.000000	            0.000000	            0.000000	           -0.134203	            0.000000	            0.291502	            0.000000	           -0.000000	            0.000000	           -8.131194	          322.324605	          229.810252	            0.374945	            1.309140	            1.914785	            0.068612	           18.673406	          -52.155502	          -13.413408	          345.342745	          238.581963	           -0.265979	            1.308936	            1.926716	           -0.704859	           18.147355	           12.537201
            0.667000	           -0.000000	            0.000000	            0.000000	            0.131163	            0.000000	            0.255524	            0.000000	            0.000000	           -0.000000	           -0.000000	            0.000000	            0.000000	           -0.134203	            0.000000	            0.291502	            0.000000	           -0.000000	            0.000000	           -8.119480	          322.524233	          230.200327	            0.374948	            1.309140	            1.914790	            0.068782	           18.725915	          -52.213694	          -13.298830	          346.002949	          239.062151	           -0.265975	            1.308935	            1.926720	           -0.698751	           18.179795	           12.560878
            0.667500	           -0.000000	            0.000000	            0.000000	            0.131163	            0.000000	            0.255524	            0.000000	            0.000000	           -0.000000	           -0.000000	            0.000000	            0.000000	           -0.134203	            0.000000	            0.291502	            0.000000	           -0.000000	            0.000000	           -8.107822	          322.725736	          230.594835	            0.374951	            1.309139	            1.914794	            0.068944	           18.778956	          -52.272434	          -13.180160	          346.676367	          239.550052	           -0.265972	            1.308934	            1.926724	           -0.692422	           18.212715	           12.584812
            0.668000	           -0.000000	            0.000000	            0.000000	            0.131163	            0.000000	            0.255524	            0.000000	            0.000000	           -0.000000	           -0.000000	            0.000000	            0.000000	           -0.134203	            0.000000	            0.291502	            0.000000	           -0.000000	            0.000000	           -8.101301	          322.925846	          230.998480	            0.374953	            1.309138	            1.914796	            0.070218	           18.833297	          -52.331459	          -13.055846	          347.363820	          240.044971	           -0.265967	            1.308933	            1.926728	           -0.685791	           18.246145	           12.608957
            0.668500	           -0.000000	            0.000000	            0.000000	            0.131163	            0.000000	            0.255524	            0.000000	            0.000000	           -0.000000	           -0.000000	            0.000000	            0.000000	           -0.134203	            0.000000	            0.291502	            0.000000	           -0.000000	            0.000000	           -8.094931	          323.128039	          231.406897	            0.374955	            1.309136	            1.914798	            0.071489	           18.888180	          -52.391063	          -12.926845	          348.065157	          240.547421	           -0.265963	            1.308931	            1.926732	           -0.678906	           18.280065	           12.633332
            0.669000	            0.000000	            0.000000	            0.000000	            0.131163	            0.000000	            0.255524	            0.000000	            0.000000	           -0.000000	           -0.000000	            0.000000	            0.000000	           -0.134203	            0.000000	            0.291502	            0.000000	           -0.000000	            0.000000	           -8.088745	          323.332450	          231.820244	            0.374957	            1.309135	            1.914801	            0.072757	           18.943608	          -52.451264	          -12.792906	          348.780649	          241.057305	           -0.265958	            1.308930	            1.926736	           -0.671756	           18.314477	           12.657923
            0.669500	            0.000000	           -0.000000	            0.000000	            0.131163	            0.000000	            0.255524	           -0.000000	           -0.000000	            0.000000	           -0.000000	            0.000000	            0.000000	           -0.134203	            0.000000	            0.291502	            0.000000	           -0.000000	            0.000000	           -8.082774	          323.539223	          232.238672	            0.374959	            1.309133	            1.914803	            0.074024	           18.999584	          -52.512086	          -12.653810	          349.510520	          241.574525	           -0.265954	            1.308928	            1.926740	           -0.664328	           18.349382	           12.682718
